# xmcd
#
# Track frame offsets: 
#        150
#        10538
#        18632
#        30848
#        42813
#        52008
#        62130
#        72982
#        83528
#        92885
#        110123
#        122150
#        133253
#        146743
#
# Disc length: 2093 seconds
#
# Revision: 4
# Processed by: cddbd v1.5.2PL0 Copyright (c) Steve Scherf et al.
# Submitted via: ExactAudioCopyFreeDBPlugin 1.0
#
DISCID=c0082b0e
DTITLE=Various Artist - Country Classics [CD 3)
DYEAR=1994
DGENRE=Country
TTITLE0=Buck Owens - Excuse Me (I Think I've Got A Heartache)
TTITLE1=Johnny Cash - Guess Things Happen That Way
TTITLE2=Frankie Laine - High Noon
TTITLE3=Billie Jo Spears - Misty Blue
TTITLE4=The Harden Trio - Tippytoeing
TTITLE5=Willie Nelson - Pride Wins Again
TTITLE6=Dolly Parton - It Wasn't God Who Made Honky Tonk Angels
TTITLE7=Patsy Cline - I Don't Wanna
TTITLE8=George Jones - The Race Is On
TTITLE9=Bobby Bare - Sylvia's Mother
TTITLE10=Charlie Rich - She
TTITLE11=Merle Kilgore - Love Has Made You Beautiful
TTITLE12=Wilma Burgess - Baby
TTITLE13=Carl Belew - Am I That Easy To Forget
EXTD=
EXTT0=
EXTT1=
EXTT2=
EXTT3=
EXTT4=
EXTT5=
EXTT6=
EXTT7=
EXTT8=
EXTT9=
EXTT10=
EXTT11=
EXTT12=
EXTT13=
PLAYORDER=
